<svg width="21" height="28" fill="currentColor" xmlns="http://www.w3.org/2000/svg"><path d="M10.5 26l-.535.525.535.546.536-.546L10.5 26zm0-25.75C4.893.25.25 4.441.25 9.75h1.5c0-4.366 3.853-8 8.75-8V.25zm10.25 9.5c0-5.309-4.643-9.5-10.25-9.5v1.5c4.897 0 8.75 3.634 8.75 8h1.5zM10.5 26l.536.525.002-.002a.405.405 0 00.028-.029l.082-.085a55.275 55.275 0 001.4-1.53 59.485 59.485 0 003.307-4.1c1.203-1.642 2.418-3.508 3.335-5.393.912-1.875 1.56-3.83 1.56-5.636h-1.5c0 1.476-.54 3.192-1.409 4.98-.864 1.776-2.024 3.562-3.196 5.163a58.014 58.014 0 01-4.656 5.557l-.019.02a.271.271 0 01-.004.004h-.001L10.5 26zM.25 9.75c0 1.805.648 3.761 1.56 5.636.917 1.885 2.132 3.751 3.335 5.393a59.472 59.472 0 004.817 5.744l.002.001L10.5 26l.536-.525-.002-.001-.004-.005a5.675 5.675 0 01-.095-.099 54 54 0 01-1.356-1.482 58.01 58.01 0 01-3.224-3.995c-1.172-1.6-2.332-3.387-3.196-5.163-.87-1.788-1.409-3.504-1.409-4.98H.25zm10.25 2.375c-1.518 0-2.643-1.121-2.643-2.375h-1.5c0 2.196 1.915 3.875 4.143 3.875v-1.5zm2.643-2.375c0 1.254-1.125 2.375-2.643 2.375v1.5c2.228 0 4.143-1.679 4.143-3.875h-1.5zM10.5 7.375c1.518 0 2.643 1.121 2.643 2.375h1.5c0-2.196-1.915-3.875-4.143-3.875v1.5zM7.857 9.75c0-1.254 1.125-2.375 2.643-2.375v-1.5c-2.228 0-4.143 1.679-4.143 3.875h1.5z"/></svg>