<svg width="99" height="23" fill="none" xmlns="http://www.w3.org/2000/svg"><path fill-rule="evenodd" clip-rule="evenodd" d="M10.183 23h27.19c.563 0 1.018-.455 1.018-1.017V1.027c0-.561-.456-1.017-1.017-1.017H10.089a7.537 7.537 0 011.78.6c1.128.544 1.984 1.29 2.556 2.244.59.95.885 2.014.885 3.188 0 1.378-.345 2.524-1.05 3.422l-.002.002c-.604.75-1.301 1.299-2.091 1.639 1.03.406 1.863 1.027 2.492 1.865.704.938 1.047 2.134 1.047 3.57 0 1.295-.303 2.45-.914 3.462-.592.994-1.467 1.771-2.617 2.336a7.702 7.702 0 01-1.992.662zM8.397 4.428a3.061 3.061 0 00-.646-.064c-.773 0-1.353.234-1.74.702-.365.468-.579 1.048-.64 1.74H.275c.002-.069.005-.137.01-.204C.4 4.524 1.11 2.913 2.41 1.77 3.754.59 5.575 0 7.874 0 9.399 0 10.7.264 11.78.793c1.098.53 1.922 1.252 2.472 2.167.57.916.854 1.943.854 3.082 0 1.343-.335 2.442-1.007 3.296-.638.793-1.377 1.347-2.217 1.662a5.003 5.003 0 01-.133.047v.122a3.72 3.72 0 01.135.047c1.096.39 1.967 1.016 2.612 1.876.671.895 1.007 2.045 1.007 3.449 0 1.26-.295 2.38-.885 3.356-.57.957-1.414 1.71-2.533 2.259-1.099.549-2.411.824-3.937.824a14.183 14.183 0 01-.452-.007c-2.231-.07-4.034-.668-5.407-1.794a5.73 5.73 0 01-.496-.464 5.979 5.979 0 01-1.238-1.988c-.312-.81-.494-1.735-.546-2.777A12.284 12.284 0 010 15.748h5.066c.019.84.244 1.518.674 2.035.029.034.058.068.089.101l.862-4.516-.862 4.516c.488.509 1.2.763 2.136.763.657 0 1.189-.153 1.595-.46.084-.064.163-.134.236-.211.448-.468.671-1.079.671-1.831 0-.855-.24-1.499-.724-1.933a2.082 2.082 0 00-.222-.173 2.333 2.333 0 00-.246-.157c-.594-.33-1.455-.502-2.584-.514H5.585V9.125h.976c.338 0 .655-.019.95-.055.61-.076 1.128-.23 1.553-.464.65-.366.976-1.007.976-1.923 0-.732-.203-1.302-.61-1.709a1.938 1.938 0 00-.16-.143 2.074 2.074 0 00-.873-.403zM30.658 15.22h3.19v1.88h-5.625V7.102h2.435v8.118zm-4.102-3.304a3.259 3.259 0 00.4-1.595c0-.627-.139-1.182-.414-1.666-.275-.484-.688-.864-1.239-1.14-.55-.275-1.225-.413-2.022-.413h-3.945V17.1h2.435v-3.589h1.51c.816 0 1.5-.147 2.05-.441.551-.295.96-.68 1.225-1.154zm-2.42-.67c-.229.22-.575.328-1.04.328H21.77V9.068h1.325c.465 0 .811.109 1.04.327.227.219.341.527.341.926s-.114.707-.342.926z" fill="#3173BC"/><path d="M94.87 9.053v2.023h3.262v1.88H94.87v2.193h3.689v1.95h-6.124V7.103h6.124v1.951H94.87zM81.46 12.087c0-.988.213-1.866.64-2.635a4.534 4.534 0 011.78-1.809c.77-.436 1.638-.655 2.607-.655 1.187 0 2.202.314 3.047.94.845.627 1.41 1.481 1.695 2.564h-2.677a2.148 2.148 0 00-.855-.954 2.345 2.345 0 00-1.239-.328c-.75 0-1.358.261-1.823.783-.465.522-.698 1.22-.698 2.094 0 .873.233 1.571.698 2.093.465.522 1.073.784 1.823.784.466 0 .879-.11 1.24-.328.37-.218.654-.536.854-.954h2.677c-.285 1.082-.85 1.937-1.695 2.563-.845.617-1.86.926-3.047.926-.969 0-1.837-.214-2.606-.64a4.657 4.657 0 01-1.78-1.81c-.428-.769-.641-1.647-.641-2.634zM80.392 7.102V17.1h-2.435V7.102h2.435zM77.224 7.102L73.678 17.1h-3.047l-3.546-9.998h2.591l2.478 7.548 2.493-7.548h2.577zM63.931 17.1l-2.079-3.774h-.584V17.1h-2.435V7.102h4.087c.788 0 1.458.138 2.008.413.56.276.978.655 1.254 1.14a3.12 3.12 0 01.413 1.595 2.95 2.95 0 01-.57 1.78c-.37.522-.921.892-1.652 1.11l2.307 3.96h-2.749zm-2.663-5.497h1.51c.446 0 .778-.11.997-.328.228-.218.342-.527.342-.926 0-.38-.114-.678-.342-.897-.219-.218-.55-.327-.997-.327h-1.51v2.478zM53.848 9.053v2.023h3.262v1.88h-3.262v2.193h3.689v1.95h-6.124V7.103h6.124v1.951h-3.689zM46.553 17.2c-.731 0-1.386-.12-1.965-.356a3.253 3.253 0 01-1.396-1.054c-.342-.465-.522-1.026-.541-1.68h2.592c.038.37.166.654.384.854.219.19.504.284.855.284.36 0 .645-.08.854-.242.21-.17.314-.403.314-.697a.806.806 0 00-.257-.613 1.902 1.902 0 00-.612-.399 9.25 9.25 0 00-1.026-.356c-.645-.199-1.172-.398-1.58-.598-.408-.2-.76-.493-1.054-.883-.294-.389-.442-.897-.442-1.524 0-.93.337-1.656 1.011-2.179.675-.531 1.553-.797 2.635-.797 1.101 0 1.99.266 2.663.797.674.523 1.035 1.254 1.083 2.194h-2.635c-.019-.323-.138-.575-.356-.755-.218-.19-.498-.285-.84-.285-.295 0-.532.08-.712.242-.18.152-.27.375-.27.67 0 .322.151.574.455.754.304.18.778.375 1.424.584.646.219 1.168.427 1.566.627.409.2.76.489 1.054.869.295.38.442.868.442 1.466 0 .57-.147 1.088-.442 1.553-.284.465-.702.835-1.253 1.11-.55.276-1.2.414-1.95.414z" fill="#262626"/></svg>