<svg width="60" height="60" fill="none" xmlns="http://www.w3.org/2000/svg"><path d="M7.5 15h.048m0 0h44.904M7.548 15c-.048.786-.048 1.755-.048 3v24c0 2.8 0 4.199.545 5.269a5.003 5.003 0 002.184 2.187c1.069.544 2.469.544 5.263.544h29.016c2.794 0 4.192 0 5.26-.544a5.01 5.01 0 002.188-2.188c.544-1.068.544-2.465.544-5.26V17.992c0-1.242 0-2.208-.048-2.992M7.548 15c.06-.98.194-1.677.497-2.27a4.997 4.997 0 012.184-2.185C11.3 10 12.7 10 15.502 10h29c2.8 0 4.198 0 5.268.545a5.003 5.003 0 012.187 2.184c.302.594.436 1.29.496 2.271m0 0h.048" stroke="#3173BC" stroke-width="4" stroke-linecap="round" stroke-linejoin="round"/></svg>