<svg width="60" height="60" fill="none" xmlns="http://www.w3.org/2000/svg"><path d="M37.5 22.5l-10 10-5-5M50 25.413c0 16.42-12.42 23.782-17.685 26.165l-.007.003c-.554.251-.831.377-1.46.485-.4.068-1.294.068-1.693 0-.631-.109-.912-.235-1.47-.488C22.42 49.195 10 41.834 10 25.413V15.5c0-2.8 0-4.202.545-5.271a4.997 4.997 0 012.184-2.185C13.8 7.5 15.2 7.5 18 7.5h24c2.8 0 4.199 0 5.269.545a5.003 5.003 0 012.187 2.184C50 11.299 50 12.698 50 15.492v9.92z" stroke="#3173BC" stroke-width="4" stroke-linecap="round" stroke-linejoin="round"/></svg>