<svg width="60" height="60" fill="none" xmlns="http://www.w3.org/2000/svg"><path d="M8 29h2.614m0 0h39.772m-39.772 0c.027-.129.06-.256.098-.382.091-.3.22-.59.476-1.17l3.866-8.697c.764-1.72 1.147-2.58 1.751-3.21a4.997 4.997 0 011.915-1.245C19.542 14 20.483 14 22.365 14h16.269c1.882 0 2.824 0 3.646.296.726.261 1.38.687 1.914 1.245.603.63.985 1.49 1.749 3.206l3.881 8.733c.248.558.374.843.463 1.138.038.126.071.253.1.382m-39.773 0c-.032.144-.056.29-.075.436-.039.311-.039.628-.039 1.262V44m39.886-15H53m-2.614 0c.032.144.056.29.075.436.039.31.039.625.039 1.25V44m0 0h-10m10 0v2.5a5 5 0 01-10 0V44m0 0h-20m0 0h-10m10 0v2.5a5 5 0 01-10 0V44" stroke="#3173BC" stroke-width="4" stroke-linecap="round" stroke-linejoin="round"/></svg>